<svg width="18.667" xmlns="http://www.w3.org/2000/svg" height="18.667" viewBox="358.667 679.667 18.667 18.667" fill="none"><path d="M368.000,693.667L362.167,687.833L363.800,686.142L366.833,689.175L366.833,679.667L369.167,679.667L369.167,689.175L372.200,686.142L373.833,687.833ZM361.000,698.333C360.358,698.333,359.809,698.105,359.353,697.649C358.896,697.192,358.667,696.642,358.667,696.000L358.667,692.500L361.000,692.500L361.000,696.000L375.000,696.000L375.000,692.500L377.333,692.500L377.333,696.000C377.333,696.642,377.105,697.191,376.648,697.649C376.192,698.106,375.642,698.334,375.000,698.333Z" style="fill: rgb(62, 30, 0); fill-opacity: 1;" class="fills"/></svg>